<svg xmlns="http://www.w3.org/2000/svg" width="13.499" height="13.5" viewBox="0 0 13.499 13.5"><path d="M14.218,11.258a6.966,6.966,0,0,0-.993-1.215c-.3-.3-1.327-1.276-1.988-1.276a.579.579,0,0,0-.422.166l-.88.879a.237.237,0,0,1-.147.032A4.867,4.867,0,0,1,7.23,8.271C5.851,6.891,5.519,5.734,5.688,5.565l.879-.879a.579.579,0,0,0,.166-.422c0-.661-.976-1.689-1.276-1.989S4.132,1,3.47,1a.578.578,0,0,0-.422.166L1.288,2.925c-.52.519-.33,1.535.564,3.018a23.693,23.693,0,0,0,3.456,4.25C7.884,12.77,10.493,14.5,11.8,14.5a1.054,1.054,0,0,0,.777-.287l1.759-1.759C14.716,12.073,14.341,11.46,14.218,11.258Zm-2.239,2.358a.286.286,0,0,1-.18.04c-.889,0-3.257-1.423-5.895-4.059A22.835,22.835,0,0,1,2.575,5.508c-.836-1.386-.757-1.919-.69-1.986L3.541,1.866a4.762,4.762,0,0,1,1.32,1.006,4.782,4.782,0,0,1,1.006,1.32l-.776.777c-.809.809.232,2.588,1.542,3.9a5.388,5.388,0,0,0,3.155,1.822,1.012,1.012,0,0,0,.744-.279l.777-.776a4.782,4.782,0,0,1,1.32,1.006,4.774,4.774,0,0,1,1.006,1.32Z" transform="translate(-1.003 -1)"/></svg>