<svg xmlns="http://www.w3.org/2000/svg" width="12.001" height="15" viewBox="0 0 12.001 15"><g transform="translate(-3.999 -1)"><path d="M10,16a1.5,1.5,0,0,1-1.1-.5C7.069,13.5,4,9.695,4,7.18A6.1,6.1,0,0,1,10,1a6.1,6.1,0,0,1,6,6.18c0,2.5-3.07,6.3-4.9,8.325A1.5,1.5,0,0,1,10,16ZM10,2A5.1,5.1,0,0,0,5,7.18c0,1.57,1.735,4.43,4.64,7.655a.5.5,0,0,0,.72,0C13.264,11.61,15,8.75,15,7.18A5.1,5.1,0,0,0,10,2Z" transform="translate(0)"/><path d="M13,13a3,3,0,1,1,3-3A3,3,0,0,1,13,13Zm0-5a2,2,0,1,0,2,2A2,2,0,0,0,13,8Z" transform="translate(-3.001 -3)"/></g></svg>